<svg width="396" height="85" viewBox="0 0 396 85" fill="none" xmlns="http://www.w3.org/2000/svg">
<path d="M249.646 16C244.449 16 240.292 20.1774 240.292 25.3991C240.292 30.6208 244.449 34.7981 249.646 34.7981C254.843 34.7981 259 30.6208 259 25.3991C259 20.1774 254.843 16 249.646 16Z" fill="#62003C"/>
<path d="M229.725 48.7227C232.843 48.7227 235.441 46.1118 235.441 42.9788C235.441 39.8458 232.843 37.2349 229.725 37.2349C226.607 37.2349 224.008 39.8458 224.008 42.9788C223.835 46.1118 226.433 48.7227 229.725 48.7227Z" fill="#62003C"/>
<path d="M129.653 72.0345L132.916 63.8636L136.179 72.0345C136.342 72.0345 129.653 72.0345 129.653 72.0345ZM130.468 57.3268L119.7 82.4933H125.247L127.532 76.937H138.137L140.421 82.4933H146.132L135.526 57.3268H130.468Z" fill="#62003C"/>
<path d="M354.647 72.0345L357.911 63.8636L361.174 72.0345C361.337 72.0345 354.647 72.0345 354.647 72.0345ZM355.463 57.3268L344.695 82.4933H350.242L352.526 76.937H363.132L365.416 82.4933H371.126L360.521 57.3268H355.463Z" fill="#62003C"/>
<path d="M383.689 67.6222L377.653 57.4903H371.289L380.916 72.6882V82.4933H386.463V72.5247L395.926 57.4903H389.726L383.689 67.6222Z" fill="#62003C"/>
<path d="M112.195 66.3149C112.195 68.4393 110.563 70.0735 107.789 70.0735H103.547V62.3928H107.789C110.4 62.5562 112.195 63.8636 112.195 66.3149ZM108.116 57.4903H98V82.4933H103.547V74.976H107.626C113.174 74.976 117.742 72.0345 117.742 66.1514C117.742 61.0855 114.153 57.4903 108.116 57.4903Z" fill="#62003C"/>
<path d="M305.047 77.9175C300.805 77.9175 297.868 74.3223 297.868 70.0735C297.868 65.8246 300.968 62.2294 305.047 62.2294C307.495 62.2294 309.453 63.3733 311.411 65.0075L314.837 60.922C312.553 58.6342 309.779 57 305.047 57C297.379 57 291.995 62.8831 291.995 69.91C291.995 77.1005 297.379 82.8201 304.884 82.8201C309.779 82.8201 312.553 81.0225 315.163 78.4078L311.737 74.8126C309.616 76.7736 307.821 77.9175 305.047 77.9175Z" fill="#62003C"/>
<path d="M248.921 67.6222C244.516 66.4783 243.537 65.988 243.537 64.3538C243.537 63.2099 244.679 62.2294 246.8 62.2294C248.921 62.2294 251.042 63.2099 253.326 64.6807L256.263 60.5952C253.816 58.6342 250.553 57.3268 246.963 57.3268C241.905 57.3268 238.153 60.2684 238.153 64.8441C238.153 69.7466 241.416 71.2174 246.474 72.5247C250.716 73.6687 251.532 74.3223 251.532 75.6297C251.532 77.1005 250.226 77.9175 247.942 77.9175C245.005 77.9175 242.721 76.7736 240.437 74.8126L237.174 78.7346C240.111 81.3493 244.026 82.6567 247.779 82.6567C253.163 82.6567 256.916 79.8786 256.916 74.976V74.8126C256.916 70.7271 253.979 68.9295 248.921 67.6222Z" fill="#62003C"/>
<path d="M327.563 57.4903H322.179V82.4933H340.126V77.5907H327.563V57.4903Z" fill="#62003C"/>
<path d="M271.6 72.0345L274.863 63.8636L278.126 72.0345H271.6ZM272.416 57.3268L261.647 82.4933H267.195L269.479 76.937H280.084L282.368 82.4933H288.079L277.474 57.3268H272.416Z" fill="#62003C"/>
<path d="M231.3 68.9296H220.368V74.159H231.3V68.9296Z" fill="#62003C"/>
<path d="M168.158 66.1514C168.158 68.2759 166.689 69.7466 163.916 69.7466H158.368V62.5562H163.753C166.526 62.5562 168.158 63.7002 168.158 66.1514ZM173.705 65.8246C173.705 60.5952 170.116 57.4903 164.242 57.4903H152.821V82.4933H158.368V74.4858H162.774L168.158 82.4933H174.521L168.321 73.6687C171.584 72.3613 173.705 69.9101 173.705 65.8246Z" fill="#62003C"/>
<path d="M187.247 57.4903H181.7V82.4933H187.247V57.4903Z" fill="#62003C"/>
<path d="M206.174 67.6222C201.768 66.4783 200.789 65.988 200.789 64.3538C200.789 63.2099 201.932 62.2294 204.053 62.2294C206.174 62.2294 208.295 63.2099 210.579 64.6807L213.516 60.5952C211.068 58.6342 207.805 57.3268 204.216 57.3268C199.158 57.3268 195.405 60.2684 195.405 64.8441C195.405 69.7466 198.668 71.2174 203.726 72.5247C207.968 73.6687 208.784 74.3223 208.784 75.6297C208.784 77.1005 207.479 77.9175 205.195 77.9175C202.258 77.9175 199.974 76.7736 197.689 74.8126L194.426 78.7346C197.363 81.3493 201.279 82.6567 205.032 82.6567C210.416 82.6567 214.168 79.8786 214.168 74.976V74.8126C214.168 70.7271 211.232 68.9295 206.174 67.6222Z" fill="#62003C"/>
<path d="M42.3368 77.8971C42.3368 81.5588 41.1211 84 39.5 84C37.8789 84 36.6632 81.5588 36.6632 77.8971C36.6632 74.2353 38.6895 68.1324 39.5 68.1324C40.3105 68.1324 42.3368 74.2353 42.3368 77.8971Z" fill="#62003C"/>
<path fill-rule="evenodd" clip-rule="evenodd" d="M36.6632 14.4265C36.6632 14.4265 37.0684 1 39.5 1C41.9316 1 42.3368 14.4265 42.3368 14.4265C42.3368 14.4265 49.2263 15.6471 52.8737 23.3775C56.5211 31.1078 51.6579 38.0245 51.6579 38.0245C51.6579 38.0245 58.5474 42.0931 58.5474 33.1422C58.5474 24.1912 65.0316 22.5637 65.0316 22.5637C65.0316 22.5637 63.4105 27.0392 64.6263 31.1078C65.8421 35.1765 64.2211 39.652 64.2211 39.652C64.2211 39.652 78 40.0588 78 42.5C78 44.9412 55.3053 48.1961 55.3053 48.1961C55.3053 48.1961 58.181 51.0441 59.7632 54.299C61.3453 57.5539 61.4488 62.6884 60.5737 62.0294C59.9284 61.5435 59.5895 61.1652 59.14 60.6633C58.4603 59.9043 57.5277 58.8629 54.9 56.7402C50.5346 53.2136 48.0105 52.6716 48.0105 52.6716C48.0105 52.6716 47.6619 53.8922 48.8211 59.1814C49.3633 61.6555 49.9303 62.8833 50.4217 63.9475C50.9809 65.1583 51.4422 66.1572 51.6579 68.5392C52.0632 73.0147 49.6316 77.4902 49.2263 77.4902C49.1141 77.4902 49.1572 77.194 49.2352 76.6578C49.439 75.2568 49.8812 72.2172 48.4158 68.5392C47.9152 67.2828 46.9509 66.1015 45.7933 64.6835C44.9759 63.6821 44.0622 62.5628 43.1474 61.2157C41.7336 59.1338 40.802 55.8868 40.2081 53.8168C39.8735 52.6505 39.646 51.8578 39.5 51.8578C39.3539 51.8578 39.1265 52.6505 38.7919 53.8168C38.198 55.8868 37.2664 59.1338 35.8526 61.2157C34.9378 62.5628 34.0241 63.6821 33.2067 64.6835C32.0491 66.1015 31.0848 67.2828 30.5842 68.5392C29.1188 72.2172 29.561 75.2568 29.7648 76.6578C29.8428 77.194 29.8859 77.4902 29.7737 77.4902C29.3684 77.4902 26.9368 73.0147 27.3421 68.5392C27.5578 66.1572 28.0191 65.1583 28.5783 63.9475C29.0697 62.8833 29.6367 61.6555 30.1789 59.1814C31.3381 53.8922 30.9895 52.6716 30.9895 52.6716C30.9895 52.6716 28.4654 53.2136 24.1 56.7402C21.4723 58.8629 20.5397 59.9043 19.86 60.6633C19.4105 61.1652 19.0716 61.5435 18.4263 62.0294C17.5512 62.6884 17.6547 57.5539 19.2368 54.299C20.819 51.0441 23.6947 48.1961 23.6947 48.1961C23.6947 48.1961 1 44.9412 1 42.5C1 40.0588 14.7789 39.652 14.7789 39.652C14.7789 39.652 13.1579 35.1765 14.3737 31.1078C15.5895 27.0392 13.9684 22.5637 13.9684 22.5637C13.9684 22.5637 20.4526 24.1912 20.4526 33.1422C20.4526 42.0931 27.3421 38.0245 27.3421 38.0245C27.3421 38.0245 22.4789 31.1078 26.1263 23.3775C29.7737 15.6471 36.6632 14.4265 36.6632 14.4265ZM44.7745 39.2451C42.8687 39.2451 41.4205 37.4933 41.5324 35.5833C41.6375 33.7888 42.9839 32.3284 44.7745 32.3284C46.5651 32.3284 47.9115 33.7888 48.0166 35.5833C48.1005 37.0158 47.3069 38.3593 46.1008 38.9415C45.6988 39.1356 45.2509 39.2451 44.7745 39.2451ZM30.9955 35.5833C30.8836 37.4933 32.3319 39.2451 34.2377 39.2451C34.7141 39.2451 35.1619 39.1356 35.564 38.9415C36.77 38.3593 37.5637 37.0158 37.4798 35.5833C37.3746 33.7888 36.0282 32.3284 34.2377 32.3284C32.4471 32.3284 31.1007 33.7888 30.9955 35.5833Z" fill="#62003C"/>
<path d="M42.3368 77.8971C42.3368 81.5588 41.1211 84 39.5 84C37.8789 84 36.6632 81.5588 36.6632 77.8971C36.6632 74.2353 38.6895 68.1324 39.5 68.1324C40.3105 68.1324 42.3368 74.2353 42.3368 77.8971Z" stroke="#62003C"/>
<path fill-rule="evenodd" clip-rule="evenodd" d="M36.6632 14.4265C36.6632 14.4265 37.0684 1 39.5 1C41.9316 1 42.3368 14.4265 42.3368 14.4265C42.3368 14.4265 49.2263 15.6471 52.8737 23.3775C56.5211 31.1078 51.6579 38.0245 51.6579 38.0245C51.6579 38.0245 58.5474 42.0931 58.5474 33.1422C58.5474 24.1912 65.0316 22.5637 65.0316 22.5637C65.0316 22.5637 63.4105 27.0392 64.6263 31.1078C65.8421 35.1765 64.2211 39.652 64.2211 39.652C64.2211 39.652 78 40.0588 78 42.5C78 44.9412 55.3053 48.1961 55.3053 48.1961C55.3053 48.1961 58.181 51.0441 59.7632 54.299C61.3453 57.5539 61.4488 62.6884 60.5737 62.0294C59.9284 61.5435 59.5895 61.1652 59.14 60.6633C58.4603 59.9043 57.5277 58.8629 54.9 56.7402C50.5346 53.2136 48.0105 52.6716 48.0105 52.6716C48.0105 52.6716 47.6619 53.8922 48.8211 59.1814C49.3633 61.6555 49.9303 62.8833 50.4217 63.9475C50.9809 65.1583 51.4422 66.1572 51.6579 68.5392C52.0632 73.0147 49.6316 77.4902 49.2263 77.4902C49.1141 77.4902 49.1572 77.194 49.2352 76.6578C49.439 75.2568 49.8812 72.2172 48.4158 68.5392C47.9152 67.2828 46.9509 66.1015 45.7933 64.6835C44.9759 63.6821 44.0622 62.5628 43.1474 61.2157C41.7336 59.1338 40.802 55.8868 40.2081 53.8168C39.8735 52.6505 39.646 51.8578 39.5 51.8578C39.3539 51.8578 39.1265 52.6505 38.7919 53.8168C38.198 55.8868 37.2664 59.1338 35.8526 61.2157C34.9378 62.5628 34.0241 63.6821 33.2067 64.6835C32.0491 66.1015 31.0848 67.2828 30.5842 68.5392C29.1188 72.2172 29.561 75.2568 29.7648 76.6578C29.8428 77.194 29.8859 77.4902 29.7737 77.4902C29.3684 77.4902 26.9368 73.0147 27.3421 68.5392C27.5578 66.1572 28.0191 65.1583 28.5783 63.9475C29.0697 62.8833 29.6367 61.6555 30.1789 59.1814C31.3381 53.8922 30.9895 52.6716 30.9895 52.6716C30.9895 52.6716 28.4654 53.2136 24.1 56.7402C21.4723 58.8629 20.5397 59.9043 19.86 60.6633C19.4105 61.1652 19.0716 61.5435 18.4263 62.0294C17.5512 62.6884 17.6547 57.5539 19.2368 54.299C20.819 51.0441 23.6947 48.1961 23.6947 48.1961C23.6947 48.1961 1 44.9412 1 42.5C1 40.0588 14.7789 39.652 14.7789 39.652C14.7789 39.652 13.1579 35.1765 14.3737 31.1078C15.5895 27.0392 13.9684 22.5637 13.9684 22.5637C13.9684 22.5637 20.4526 24.1912 20.4526 33.1422C20.4526 42.0931 27.3421 38.0245 27.3421 38.0245C27.3421 38.0245 22.4789 31.1078 26.1263 23.3775C29.7737 15.6471 36.6632 14.4265 36.6632 14.4265ZM44.7745 39.2451C42.8687 39.2451 41.4205 37.4933 41.5324 35.5833C41.6375 33.7888 42.9839 32.3284 44.7745 32.3284C46.5651 32.3284 47.9115 33.7888 48.0166 35.5833C48.1005 37.0158 47.3069 38.3593 46.1008 38.9415C45.6988 39.1356 45.2509 39.2451 44.7745 39.2451ZM30.9955 35.5833C30.8836 37.4933 32.3319 39.2451 34.2377 39.2451C34.7141 39.2451 35.1619 39.1356 35.564 38.9415C36.77 38.3593 37.5637 37.0158 37.4798 35.5833C37.3746 33.7888 36.0282 32.3284 34.2377 32.3284C32.4471 32.3284 31.1007 33.7888 30.9955 35.5833Z" stroke="#62003C"/>
</svg>
