<svg width="256" height="256" viewBox="0 0 256 256" fill="none" xmlns="http://www.w3.org/2000/svg">
<g clip-path="url(#clip0_38_2)">
<path d="M139.937 325.659C139.937 340.863 134.821 351 128 351C121.179 351 116.063 340.863 116.063 325.659C116.063 310.454 124.589 285.112 128 285.112C131.411 285.112 139.937 310.454 139.937 325.659Z" fill="#FCC600"/>
<path fill-rule="evenodd" clip-rule="evenodd" d="M116.063 65.7513C116.063 65.7513 117.768 10 128 10C138.232 10 139.937 65.7513 139.937 65.7513C139.937 65.7513 168.926 70.8196 184.274 102.919C199.621 135.018 179.158 163.738 179.158 163.738C179.158 163.738 208.147 180.633 208.147 143.465C208.147 106.298 235.432 99.54 235.432 99.54C235.432 99.54 228.611 118.124 233.726 135.018C238.842 151.912 232.021 170.496 232.021 170.496C232.021 170.496 290 172.186 290 182.322C290 192.459 194.505 205.974 194.505 205.974C194.505 205.974 206.606 217.8 213.263 231.316C219.921 244.831 220.356 266.151 216.674 263.415C213.958 261.397 212.533 259.826 210.641 257.742C207.781 254.591 203.857 250.267 192.8 241.452C174.431 226.809 163.811 224.558 163.811 224.558C163.811 224.558 162.344 229.626 167.221 251.589C169.503 261.862 171.888 266.961 173.956 271.379C176.309 276.407 178.25 280.555 179.158 290.446C180.863 309.03 170.632 327.613 168.926 327.613C168.454 327.613 168.636 326.384 168.964 324.157C169.821 318.34 171.682 305.718 165.516 290.446C163.41 285.229 159.352 280.324 154.481 274.435C151.042 270.278 147.197 265.63 143.347 260.036C137.398 251.391 133.478 237.909 130.979 229.313C129.571 224.47 128.615 221.179 128 221.179C127.385 221.179 126.429 224.47 125.021 229.313C122.522 237.909 118.602 251.391 112.653 260.036C108.803 265.63 104.958 270.278 101.519 274.435C96.6483 280.324 92.5905 285.229 90.4842 290.446C84.3181 305.718 86.1786 318.34 87.0362 324.157C87.3644 326.384 87.5457 327.613 87.0737 327.613C85.3684 327.613 75.1368 309.03 76.8421 290.446C77.7497 280.555 79.6909 276.407 82.0437 271.379C84.1116 266.961 86.4974 261.862 88.779 251.589C93.6563 229.626 92.1895 224.558 92.1895 224.558C92.1895 224.558 81.5688 226.809 63.2 241.452C52.1433 250.267 48.2188 254.591 45.3588 257.742C43.4674 259.826 42.0416 261.397 39.3263 263.415C35.6439 266.151 36.0794 244.831 42.7368 231.316C49.3943 217.8 61.4947 205.974 61.4947 205.974C61.4947 205.974 -34 192.459 -34 182.322C-34 172.186 23.9789 170.496 23.9789 170.496C23.9789 170.496 17.1579 151.912 22.2737 135.018C27.3895 118.124 20.5684 99.54 20.5684 99.54C20.5684 99.54 47.8526 106.298 47.8526 143.465C47.8526 180.633 76.8421 163.738 76.8421 163.738C76.8421 163.738 56.379 135.018 71.7263 102.919C87.0737 70.8196 116.063 65.7513 116.063 65.7513ZM150.194 168.807C142.175 168.807 136.081 161.533 136.552 153.602C136.994 146.15 142.66 140.086 150.194 140.086C157.728 140.086 163.394 146.15 163.836 153.602C164.189 159.55 160.85 165.129 155.775 167.546C154.083 168.352 152.199 168.807 150.194 168.807ZM92.215 153.602C91.7441 161.533 97.8381 168.807 105.857 168.807C107.862 168.807 109.746 168.352 111.438 167.546C116.513 165.129 119.852 159.55 119.499 153.602C119.057 146.15 113.391 140.086 105.857 140.086C98.3228 140.086 92.6575 146.15 92.215 153.602ZM117.401 176.614C113.756 174.422 110.571 172.506 109.308 173.754C106.815 176.216 120.523 186.063 128 186.063C130.283 186.063 133.24 185.145 136.148 183.8C136.148 183.8 140.062 189.986 142.954 188.525C145.931 187.021 142.954 179.909 142.954 179.909C146.504 177.355 148.285 174.874 146.692 173.754C144.864 172.469 141.546 174.54 137.907 176.813C134.577 178.892 130.977 181.14 128 181.14C124.928 181.14 120.947 178.746 117.401 176.614Z" fill="#FCC600"/>
<path d="M138.742 182.482C138.742 182.482 140.582 185.789 141.708 184.832C142.78 183.921 140.462 181.474 140.462 181.474C139.904 181.819 139.329 182.157 138.742 182.482Z" fill="#FCC600"/>
</g>
<defs>
<clipPath id="clip0_38_2">
<rect width="256" height="256" fill="white"/>
</clipPath>
</defs>
</svg>
